{"asset":{"generator":"3D Builder","version":"2.0"},"scene":0,"scenes":[{"nodes":[0]}],"nodes":[{"mesh":0,"matrix":[0.99999994039535522,0,0,0,0,-1.1920928244535389E-7,-0.99999982118606567,0,0,0.99999982118606567,-1.1920928244535389E-7,0,0,0.013442918658256531,-1.6025210047843075E-9,1]}],"meshes":[{"primitives":[{"attributes":{"POSITION":0,"COLOR_0":1},"mode":4,"indices":2}]}],"accessors":[{"bufferView":0,"byteOffset":0,"count":1247,"componentType":5126,"type":"VEC3","min":[-0.024922853335738182,-0.0070000002160668373,-0.013442921452224255],"max":[0.013472037389874458,0.1120000034570694,0.022776242345571518]},{"bufferView":1,"byteOffset":0,"count":1247,"componentType":5121,"type":"VEC4","normalized":true},{"bufferView":2,"byteOffset":0,"count":7494,"componentType":5125,"type":"SCALAR"}],"bufferViews":[{"buffer":0,"byteOffset":0,"byteLength":14964,"byteStride":12,"target":34962},{"buffer":0,"byteOffset":14964,"byteLength":4988,"byteStride":4,"target":34962},{"buffer":0,"byteOffset":19952,"byteLength":29976,"target":34963}],"buffers":[{"byteLength":49928,"uri":"Frontlampe.bin"}]}